<svg width="375" height="180" viewBox="0 0 375 180" fill="none" xmlns="http://www.w3.org/2000/svg">
<path d="M194.566 119.376H198.165C208.961 118.836 216.518 110.38 216.518 100.304C216.518 96.8851 215.798 93.4665 214.178 90.7676H194.566V119.376Z" fill="white"/>
<path d="M192.764 90.5874H174.771V119.376H192.764V90.5874Z" fill="white"/>
<path d="M213.099 88.7884C211.3 86.2694 208.781 84.2902 206.082 82.8508C209.32 80.5117 211.48 76.7332 211.48 72.5949C211.48 65.5777 205.902 60 198.885 60H194.566V88.7884H213.099Z" fill="white"/>
<path d="M192.764 60H174.771V88.7884H192.764V60Z" fill="white"/>
<path d="M243.146 119.376H246.745C257.541 118.836 265.098 110.38 265.098 100.304C265.098 96.8851 264.378 93.4665 262.759 90.7676H243.146V119.376Z" fill="white"/>
<path d="M241.346 90.5874H223.354V119.376H241.346V90.5874Z" fill="white"/>
<path d="M261.679 88.7884C259.88 86.2694 257.361 84.2902 254.662 82.8508C257.901 80.5117 260.06 76.7332 260.06 72.5949C260.06 65.5777 254.482 60 247.465 60H243.146V88.7884H261.679Z" fill="white"/>
<path d="M241.346 60H223.354V88.7884H241.346V60Z" fill="white"/>
<path d="M120.256 90.5874L110 119.376H124.934L129.252 106.781H138.788V90.5874H120.256Z" fill="white"/>
<path d="M138.788 60H131.051L120.795 88.7884H138.788V60Z" fill="white"/>
<path d="M140.588 106.781H150.124L154.442 119.376H169.376L159.12 90.5874H140.588V106.781Z" fill="white"/>
<path d="M158.581 88.7884L148.325 60H140.588V88.7884H158.581Z" fill="white"/>
</svg>
