<svg width="375" height="180" viewBox="0 0 375 180" fill="none" xmlns="http://www.w3.org/2000/svg">
<path d="M33.6195 76.4644V95.8241C33.6195 96.8849 33.4206 97.8795 33.0891 98.874C32.7576 99.8685 32.1609 100.797 31.3653 101.526C30.5697 102.322 29.5089 102.985 28.1829 103.449C26.8568 103.913 25.2656 104.178 23.2766 104.178C21.3539 104.178 19.7627 103.913 18.4367 103.449C17.1106 102.985 16.0498 102.322 15.2542 101.526C14.4586 100.73 13.8619 99.8685 13.5304 98.874C13.1989 97.8795 13 96.8849 13 95.8241V76.4644H19.166V95.2937C19.166 96.4209 19.4975 97.2828 20.0942 97.8795C20.6909 98.4762 21.7517 98.8077 23.3429 98.8077C24.8678 98.8077 25.9949 98.4762 26.5916 97.8795C27.1883 97.2828 27.5198 96.4209 27.5198 95.2937V76.4644H33.6195Z" fill="white"/>
<path d="M44.3598 85.8127V103.78H38.5254V76.4644H46.0837L55.0343 95.2937V76.4644H60.935V103.78H53.3104L44.3598 85.8127Z" fill="white"/>
<path d="M72.0722 76.4644H65.9062V103.78H72.0722V76.4644Z" fill="white"/>
<path d="M92.4288 103.78H83.6108L75.9199 76.4644H82.2185L88.0529 98.211L93.8211 76.4644H100.12L92.4288 103.78Z" fill="white"/>
<path d="M103.367 103.78V76.4644H120.539V81.901H109.533V86.9399H119.677V92.3765H109.533V98.3436H120.539V103.78H103.367Z" fill="white"/>
<path d="M195.791 103.78V76.4644H201.957V98.3436H212.764V103.78H195.791Z" fill="white"/>
<path d="M273.031 95.8239C273.031 96.8847 272.832 97.8792 272.434 98.8737C272.036 99.8682 271.44 100.796 270.644 101.592C269.848 102.388 268.721 103.051 267.395 103.515C266.069 103.979 264.412 104.244 262.489 104.244C260.566 104.244 258.909 103.979 257.583 103.515C256.257 103.051 255.13 102.388 254.334 101.592C253.472 100.796 252.875 99.9345 252.544 98.8737C252.146 97.8792 251.947 96.8847 251.947 95.8239V84.4202C251.947 83.3594 252.146 82.3649 252.544 81.3704C252.942 80.3758 253.538 79.4476 254.334 78.652C255.13 77.8564 256.257 77.1934 257.583 76.7293C258.909 76.2652 260.566 76 262.489 76C264.412 76 266.069 76.2652 267.395 76.7293C268.721 77.1934 269.848 77.8564 270.644 78.652C271.506 79.4476 272.103 80.3095 272.434 81.3704C272.832 82.3649 273.031 83.3594 273.031 84.4202V95.8239ZM266.865 84.9506C266.865 83.8898 266.533 83.0279 265.804 82.4312C265.075 81.8345 264.014 81.5029 262.423 81.5029C260.898 81.5029 259.771 81.8345 259.041 82.4312C258.378 83.0279 257.981 83.8898 257.981 84.9506V95.2935C257.981 96.3543 258.312 97.2162 259.041 97.8129C259.771 98.4096 260.832 98.7411 262.423 98.7411C263.948 98.7411 265.075 98.4096 265.804 97.8129C266.467 97.2162 266.865 96.3543 266.865 95.2935V84.9506Z" fill="white"/>
<path d="M296.369 97.2828C296.369 99.2055 295.706 100.797 294.446 101.99C293.187 103.184 291.198 103.78 288.413 103.78H276.744V76.4644H287.551C290.402 76.4644 292.391 76.9948 293.585 78.0556C294.778 79.1164 295.375 80.575 295.375 82.4314V85.216C295.375 86.2105 295.176 87.0725 294.712 87.7355C294.248 88.4648 293.452 89.0615 292.391 89.5256C293.518 89.7908 294.513 90.3875 295.242 91.3157C296.038 92.2439 296.369 93.3047 296.369 94.5644V97.2828ZM289.209 83.3596C289.209 82.7629 289.01 82.2988 288.612 81.9673C288.214 81.6358 287.617 81.4369 286.756 81.4369H282.91V87.6692H286.689C287.485 87.6692 288.148 87.4702 288.546 87.1387C288.943 86.7409 289.142 86.3432 289.142 85.7464V83.3596H289.209ZM290.203 94.7633C290.203 93.9677 290.004 93.4373 289.54 93.0395C289.076 92.6417 288.479 92.4428 287.617 92.4428H282.976V98.8077H286.756C287.684 98.8077 288.546 98.6751 289.209 98.3436C289.872 98.0121 290.203 97.4153 290.203 96.4208V94.7633Z" fill="white"/>
<path d="M320.767 95.8239C320.767 96.8847 320.568 97.8792 320.171 98.8737C319.773 99.8682 319.176 100.796 318.38 101.592C317.585 102.388 316.458 103.051 315.132 103.515C313.806 103.979 312.148 104.244 310.225 104.244C308.303 104.244 306.645 103.979 305.319 103.515C303.993 103.051 302.866 102.388 302.07 101.592C301.209 100.796 300.612 99.9345 300.28 98.8737C299.883 97.8792 299.684 96.8847 299.684 95.8239V84.4202C299.684 83.3594 299.883 82.3649 300.28 81.3704C300.678 80.3758 301.275 79.4476 302.07 78.652C302.866 77.8564 303.993 77.1934 305.319 76.7293C306.645 76.2652 308.303 76 310.225 76C312.148 76 313.806 76.2652 315.132 76.7293C316.458 77.1934 317.585 77.8564 318.38 78.652C319.242 79.4476 319.839 80.3095 320.171 81.3704C320.568 82.3649 320.767 83.3594 320.767 84.4202V95.8239ZM314.601 84.9506C314.601 83.8898 314.27 83.0279 313.54 82.4312C312.811 81.8345 311.75 81.5029 310.159 81.5029C308.634 81.5029 307.507 81.8345 306.778 82.4312C306.115 83.0279 305.717 83.8898 305.717 84.9506V95.2935C305.717 96.3543 306.048 97.2162 306.778 97.8129C307.507 98.4096 308.568 98.7411 310.159 98.7411C311.684 98.7411 312.811 98.4096 313.54 97.8129C314.203 97.2162 314.601 96.3543 314.601 95.2935V84.9506Z" fill="white"/>
<path d="M335.818 81.901V103.78H329.652V81.901H322.359V76.4644H343.178V81.901H335.818Z" fill="white"/>
<path d="M176.63 76.4644H185.448L193.139 103.78H186.841L181.006 82.0336L175.238 103.78H168.939L176.63 76.4644Z" fill="white"/>
<path d="M167.416 96.2879C167.416 97.6139 167.283 98.741 167.018 99.8018C166.753 100.796 166.223 101.658 165.493 102.321C164.764 102.984 163.703 103.515 162.444 103.846C161.118 104.178 159.46 104.31 157.405 104.31C155.813 104.31 154.222 104.178 152.697 103.846C151.106 103.515 150.642 103.316 149.647 102.984V97.8791C150.907 98.2769 152.167 98.5421 153.493 98.8073C154.753 99.0725 156.145 99.2051 157.537 99.2051C158.333 99.2051 158.996 99.1388 159.46 99.0725C159.99 99.0062 160.322 98.8073 160.587 98.6084C160.852 98.3432 161.051 98.078 161.118 97.6802C161.184 97.3487 161.25 96.8846 161.25 96.2879C161.25 95.6912 161.25 95.1608 161.184 94.8293C161.117 94.4978 160.985 94.1663 160.653 93.9011C160.322 93.6359 159.924 93.437 159.261 93.238C158.664 93.0391 157.802 92.8402 156.675 92.575C155.018 92.2435 153.692 91.8457 152.697 91.4479C151.703 91.0501 150.907 90.586 150.377 89.923C149.846 89.3263 149.515 88.5307 149.316 87.6025C149.117 86.6743 149.051 85.4809 149.051 84.0223C149.051 82.6962 149.183 81.5028 149.449 80.5746C149.714 79.6464 150.244 78.8508 150.907 78.2541C151.636 77.6574 152.565 77.1933 153.824 76.9281C155.018 76.6629 156.609 76.5303 158.465 76.5303C159.659 76.5303 160.985 76.5966 162.377 76.7292C163.77 76.8618 165.228 77.0607 166.753 77.3922V82.5636C165.162 82.2984 163.239 82.0332 162.112 81.9006C160.985 81.768 159.791 81.7017 158.532 81.7017C157.869 81.7017 157.272 81.7017 156.874 81.768C156.41 81.8343 156.079 81.9669 155.88 82.1658C155.615 82.3647 155.482 82.6299 155.349 82.9614C155.283 83.2929 155.217 83.6907 155.217 84.1549C155.217 84.8179 155.217 85.282 155.283 85.6798C155.349 86.0113 155.482 86.3428 155.813 86.5417C156.079 86.7406 156.543 86.9395 157.139 87.1384C157.736 87.3373 158.598 87.5362 159.659 87.7351C161.515 88.1329 162.974 88.597 163.968 89.0611C164.963 89.5252 165.759 90.0556 166.289 90.6523C166.819 91.249 167.151 92.0446 167.217 92.9065C167.35 93.8348 167.416 94.9619 167.416 96.2879Z" fill="white"/>
<path d="M363.199 96.2883C363.199 97.6143 363.067 98.7414 362.801 99.8022C362.536 100.797 362.006 101.659 361.277 102.322C360.547 102.985 359.486 103.515 358.227 103.847C356.901 104.178 355.243 104.311 353.188 104.311C351.597 104.311 350.005 104.178 348.481 103.847C346.889 103.515 346.425 103.316 345.431 102.985V97.8795C346.69 98.2773 347.95 98.5425 349.276 98.8077C350.536 99.0729 351.928 99.1392 353.32 99.1392C354.116 99.1392 354.779 99.0729 355.243 99.0066C355.774 98.9403 356.105 98.7414 356.37 98.5425C356.636 98.2773 356.834 98.0121 356.901 97.6143C356.967 97.2828 357.033 96.8187 357.033 96.2219C357.033 95.6252 357.033 95.0948 356.967 94.7633C356.901 94.4318 356.768 94.1003 356.437 93.8351C356.105 93.5699 355.707 93.371 355.044 93.1721C354.448 92.9732 353.586 92.7743 352.459 92.5091C350.801 92.1776 349.475 91.7798 348.481 91.382C347.486 90.9842 346.69 90.5201 346.16 89.8571C345.63 89.2604 345.298 88.4648 345.099 87.5366C344.9 86.6083 344.834 85.4149 344.834 83.9563C344.834 82.6303 344.967 81.4369 345.232 80.5087C345.497 79.5805 346.027 78.7849 346.69 78.1882C347.42 77.5915 348.348 77.1273 349.608 76.8621C350.801 76.5969 352.392 76.4644 354.249 76.4644C355.442 76.4644 356.768 76.5306 358.16 76.6632C359.553 76.7959 361.011 76.9948 362.536 77.3263V82.4977C360.945 82.2325 359.022 81.9673 357.895 81.8347C356.768 81.7021 355.575 81.6358 354.315 81.6358C353.652 81.6358 353.055 81.6358 352.657 81.7021C352.193 81.7684 351.862 81.901 351.663 82.0999C351.398 82.2988 351.265 82.564 351.133 82.8955C351.066 83.227 351 83.6248 351 84.0889C351 84.7519 351 85.216 351.066 85.6138C351.133 85.9453 351.265 86.2768 351.597 86.4757C351.862 86.6746 352.326 86.8736 352.923 87.0725C353.519 87.2714 354.381 87.4703 355.442 87.6692C357.299 88.067 358.757 88.5311 359.752 88.9952C360.746 89.4593 361.542 89.9897 362.072 90.5864C362.603 91.1831 362.934 91.9787 363 92.8406C363.133 93.8351 363.199 94.9622 363.199 96.2883Z" fill="white"/>
<path d="M137.843 85.6801C137.843 86.2105 137.644 86.6747 137.247 87.0725C136.849 87.4703 136.252 87.6029 135.39 87.6029H131.611V81.3706H135.39C136.252 81.3706 136.915 81.5695 137.247 81.901C137.644 82.2325 137.843 82.6966 137.843 83.2933V85.6801ZM140.959 89.5256C142.02 89.0615 142.816 88.4648 143.28 87.7355C143.744 87.0062 143.943 86.1442 143.943 85.216V82.4314C143.943 80.575 143.346 79.1164 142.153 78.0556C140.959 76.9948 138.97 76.4644 136.12 76.4644H125.312V103.847H131.545V92.5091H136.186C136.981 92.5091 137.644 92.708 138.109 93.1058C138.573 93.5036 138.772 94.034 138.772 94.8296V103.913H144.937V94.697C144.937 93.4373 144.54 92.3102 143.81 91.382C143.015 90.3875 142.087 89.7908 140.959 89.5256Z" fill="white"/>
<path d="M241.273 85.6801C241.273 86.2105 241.074 86.6747 240.676 87.0725C240.278 87.4703 239.682 87.6029 238.82 87.6029H235.041V81.3706H238.82C239.682 81.3706 240.345 81.5695 240.676 81.901C241.074 82.2325 241.273 82.6966 241.273 83.2933V85.6801ZM244.323 89.5256C245.384 89.0615 246.179 88.4648 246.643 87.7355C247.107 87.0062 247.306 86.1442 247.306 85.216V82.4314C247.306 80.575 246.71 79.1164 245.516 78.0556C244.323 76.9948 242.334 76.4644 239.483 76.4644H228.676V103.847H234.908V92.5091H239.549C240.345 92.5091 241.008 92.708 241.472 93.1058C241.936 93.5036 242.135 94.034 242.135 94.8296V103.913H248.301V94.697C248.301 93.4373 247.903 92.3102 247.174 91.382C246.444 90.3875 245.516 89.7908 244.323 89.5256Z" fill="white"/>
</svg>
