<svg width="375" height="180" viewBox="0 0 375 180" fill="none" xmlns="http://www.w3.org/2000/svg">
<path d="M132.073 52.6719C132.2 52.7053 132.324 52.7581 132.453 52.7683C133.976 52.8914 135.505 52.9617 137.023 53.137C139.352 53.4053 141.651 53.8523 143.906 54.5119C145.688 55.0332 147.418 55.6861 149.074 56.5233C151.124 57.5602 152.997 58.8444 154.673 60.4326C156.673 62.3277 158.261 64.5138 159.462 66.9773C160.61 69.3312 161.39 71.8145 161.911 74.3812C162.298 76.2894 162.564 78.2111 162.723 80.1522C162.856 81.7897 162.942 83.4268 162.938 85.07C162.929 89.1308 162.952 93.1921 162.915 97.2528C162.898 99.1196 162.73 100.981 162.507 102.837C162.263 104.866 161.909 106.871 161.378 108.843C160.475 112.197 159.092 115.322 156.924 118.063C155.4 119.99 153.594 121.605 151.527 122.94C149.656 124.147 147.642 125.048 145.547 125.766C143.326 126.527 141.041 127.054 138.715 127.372C137.239 127.573 135.752 127.689 134.269 127.848C134.141 127.861 134.015 127.91 133.888 127.942H122.661C122.534 127.91 122.408 127.863 122.279 127.849C120.835 127.693 119.384 127.585 117.946 127.383C114.027 126.833 110.262 125.771 106.745 123.909C104.074 122.495 101.754 120.648 99.8389 118.309C98.3074 116.439 97.1197 114.361 96.2297 112.116C94.5615 107.908 93.8672 103.504 93.6137 99.0118C93.5734 98.3005 93.473 97.592 93.4004 96.8819C93.4004 92.4609 93.4004 88.04 93.4004 83.619C93.4702 82.9094 93.5813 82.201 93.6023 81.4903C93.6619 79.4704 93.8695 77.4664 94.1695 75.4697C94.709 71.8809 95.6687 68.4277 97.4328 65.2257C98.5933 63.1196 100.083 61.2772 101.884 59.6981C103.684 58.1201 105.717 56.8983 107.917 55.9448C111.503 54.39 115.271 53.5664 119.133 53.1308C120.668 52.9578 122.215 52.8897 123.755 52.7689C123.884 52.7587 124.008 52.7053 124.134 52.6719C126.78 52.6719 129.427 52.6719 132.073 52.6719ZM126.027 103.215C126.047 103.561 126.07 103.779 126.07 103.996C126.072 106.395 126.07 108.795 126.072 111.194C126.072 111.933 126.088 111.947 126.842 111.948C128.014 111.95 129.186 111.949 130.358 111.948C130.964 111.948 131.268 111.649 131.269 111.05C131.269 106.742 131.271 102.435 131.269 98.1269C131.269 96.9307 131.416 95.7548 131.729 94.5994C132.227 92.7644 133.364 91.5171 135.17 90.9147C137.276 90.2125 139.418 90.2142 141.539 90.7853C143.398 91.2856 144.672 92.4655 145.246 94.3492C145.608 95.5341 145.79 96.7446 145.794 97.976C145.807 102.397 145.798 106.818 145.801 111.239C145.801 111.907 145.839 111.944 146.506 111.946C147.772 111.95 149.038 111.95 150.305 111.946C150.965 111.944 150.995 111.913 150.996 111.228C150.999 109.66 151.014 108.091 150.993 106.524C150.951 103.295 151.096 100.065 150.904 96.8371C150.799 95.0679 150.475 93.3503 149.816 91.7071C149.342 90.525 148.692 89.4416 147.798 88.517C146.33 86.998 144.519 86.1154 142.479 85.6724C140.258 85.1903 138.011 85.1806 135.77 85.4705C133.738 85.7331 131.833 86.3769 130.203 87.6832C130.124 87.7467 130.012 87.77 129.833 87.8477C129.82 87.563 129.807 87.3451 129.801 87.1268C129.744 84.5788 129.923 82.0274 129.689 79.4817C129.54 77.8736 129.206 76.3098 128.569 74.8186C127.917 73.2944 126.955 71.9938 125.655 70.9728C124.23 69.8531 122.571 69.2365 120.801 68.8945C119.437 68.6307 118.058 68.6489 116.679 68.6489C114.979 68.6494 113.33 68.9325 111.737 69.5201C109.321 70.4112 107.525 72.0131 106.407 74.3296C105.458 76.2973 104.998 78.4034 104.981 80.5799C104.946 84.9815 104.955 89.3843 104.978 93.786C104.987 95.495 105.283 97.1689 105.855 98.786C106.962 101.909 109.052 104.025 112.225 105.065C113.807 105.583 115.436 105.777 117.08 105.801C118.189 105.817 119.31 105.728 120.408 105.567C122.222 105.302 123.932 104.714 125.429 103.608C125.578 103.498 125.738 103.403 126.027 103.212L126.027 103.215Z" fill="white"/>
<path d="M282.001 112.185C281.531 112.153 281.06 112.102 280.589 112.09C278.496 112.041 276.448 111.737 274.486 110.985C272.328 110.158 270.59 108.835 269.603 106.676C269.135 105.652 268.846 104.578 268.834 103.447C268.793 99.8407 268.748 96.2343 268.737 92.6279C268.721 87.1684 268.733 81.7089 268.733 76.2493C268.733 76.0792 268.73 75.909 268.734 75.7394C268.749 75.1557 268.799 75.1001 269.399 75.0979C270.722 75.0928 272.045 75.0933 273.368 75.0979C274.032 75.1001 274.079 75.1449 274.08 75.8052C274.083 78.7332 274.081 81.6612 274.082 84.5898C274.082 85.213 274.397 85.5249 275.027 85.5257C277.106 85.5263 279.184 85.5257 281.263 85.5268C281.509 85.5268 281.754 85.5393 282 85.5467V90.7612C281.15 90.7657 280.301 90.7725 279.452 90.7737C277.867 90.7759 276.282 90.7714 274.697 90.7765C274.131 90.7782 274.094 90.8241 274.082 91.3948C274.081 91.4515 274.081 91.5082 274.081 91.5644C274.081 95.1481 274.077 98.7318 274.087 102.316C274.089 102.746 274.142 103.183 274.23 103.605C274.431 104.558 274.935 105.331 275.828 105.75C276.488 106.06 277.188 106.313 277.896 106.486C279.24 106.812 280.618 106.879 281.999 106.858V112.186L282.001 112.185Z" fill="white"/>
<path d="M213.481 88.2691C213.481 84.2645 213.481 80.2605 213.481 76.2559C213.481 76.105 213.479 75.9536 213.482 75.8027C213.491 75.1447 213.53 75.1005 214.197 75.0982C215.464 75.0942 216.73 75.0942 217.996 75.0982C218.7 75.0999 218.736 75.1351 218.737 75.8327C218.74 78.7415 218.738 81.6502 218.739 84.5595C218.739 85.2031 219.062 85.5253 219.71 85.526C222.091 85.5289 224.472 85.5005 226.853 85.5442C228.836 85.5805 230.749 85.9827 232.542 86.8828C234.68 87.9572 236.163 89.6293 237.083 91.8131C237.848 93.6277 238.162 95.5353 238.252 97.4962C238.299 98.516 238.286 99.5314 238.23 100.546C238.119 102.541 237.743 104.483 236.863 106.294C235.565 108.965 233.447 110.672 230.608 111.482C228.438 112.102 226.223 112.199 223.982 112C222.231 111.845 220.549 111.457 218.991 110.626C217.036 109.583 215.639 108.018 214.741 106.001C213.882 104.073 213.507 102.037 213.494 99.9409C213.47 96.0503 213.487 92.1592 213.487 88.268H213.481V88.2691ZM222.933 90.7751C221.724 90.7751 220.515 90.77 219.307 90.7774C218.808 90.7802 218.759 90.8404 218.74 91.3293C218.738 91.386 218.738 91.4427 218.739 91.4989C218.77 94.3849 218.793 97.2715 218.84 100.158C218.856 101.122 219.02 102.072 219.318 102.994C219.819 104.541 220.79 105.641 222.326 106.237C223.165 106.563 224.034 106.674 224.921 106.768C226.454 106.931 227.934 106.736 229.377 106.229C230.289 105.908 231.043 105.364 231.624 104.578C232.153 103.863 232.456 103.056 232.63 102.198C232.993 100.412 233.11 98.6079 232.852 96.7973C232.743 96.0344 232.602 95.2664 232.379 94.5307C231.883 92.8988 230.771 91.8353 229.165 91.2811C228.193 90.9447 227.184 90.8018 226.161 90.7791C225.085 90.7553 224.009 90.774 222.932 90.7746L222.933 90.7751Z" fill="white"/>
<path d="M252.52 85.535C254.441 85.4851 256.269 85.7114 258.037 86.3387C260.44 87.1913 262.24 88.737 263.429 91.003C264.277 92.6207 264.716 94.3553 264.868 96.1534C264.983 97.5045 265.036 98.871 264.98 100.225C264.892 102.368 264.51 104.461 263.533 106.411C262.228 109.013 260.158 110.681 257.382 111.479C255.213 112.104 252.996 112.208 250.756 111.999C249.681 111.898 248.624 111.732 247.589 111.405C243.995 110.273 241.839 107.794 240.829 104.235C240.483 103.013 240.345 101.76 240.231 100.496C240.06 98.5976 240.187 96.7212 240.499 94.8567C240.846 92.7773 241.6 90.8572 242.958 89.2072C243.877 88.0909 245.019 87.2667 246.329 86.6825C248.314 85.7976 250.409 85.4624 252.52 85.535H252.52ZM259.653 98.8143C259.653 98.4563 259.676 98.002 259.648 97.5505C259.577 96.4172 259.415 95.3009 259.011 94.2271C258.443 92.7223 257.374 91.745 255.869 91.2674C253.721 90.5861 251.552 90.5799 249.4 91.2594C247.638 91.8153 246.537 93.0308 246.044 94.7972C245.77 95.7819 245.621 96.7842 245.585 97.812C245.559 98.5477 245.521 99.2805 245.607 100.011C245.709 100.89 245.781 101.781 245.984 102.638C246.473 104.704 247.798 105.992 249.859 106.488C250.497 106.641 251.161 106.7 251.816 106.771C253.304 106.934 254.766 106.764 256.163 106.243C257.583 105.713 258.565 104.716 259.066 103.262C259.554 101.849 259.707 100.394 259.653 98.8143H259.653Z" fill="white"/>
<path d="M209.77 98.9393C209.864 101.026 209.582 103.072 208.909 105.063C208.406 106.555 207.62 107.885 206.516 109C205.521 110.005 204.321 110.719 202.993 111.216C201.416 111.805 199.776 112.032 198.105 112.08C196.456 112.128 194.821 112.026 193.212 111.63C189.158 110.632 186.664 108.059 185.586 104.068C185.204 102.658 185.025 101.219 185.016 99.7567C185.004 97.9807 184.994 96.207 185.368 94.456C185.691 92.9478 186.185 91.5087 187.029 90.2052C188.187 88.4162 189.777 87.1626 191.768 86.4184C193.396 85.8104 195.084 85.5523 196.82 85.5268C198.605 85.5007 200.371 85.5818 202.095 86.0929C203.826 86.6068 205.394 87.423 206.645 88.7441C207.931 90.1026 208.738 91.7362 209.212 93.5394C209.677 95.3068 209.841 97.1055 209.77 98.9393H209.77ZM190.381 98.7868C190.325 100.131 190.473 101.455 190.818 102.762C191.333 104.714 192.574 105.92 194.509 106.447C196.295 106.934 198.095 106.933 199.894 106.562C200.983 106.337 201.968 105.888 202.768 105.072C203.555 104.268 203.951 103.279 204.163 102.211C204.465 100.69 204.602 99.1583 204.455 97.5979C204.361 96.5973 204.253 95.608 203.96 94.6466C203.429 92.9069 202.289 91.7594 200.55 91.2313C198.47 90.5994 196.374 90.5989 194.296 91.2245C192.468 91.7753 191.322 93.0226 190.826 94.8593C190.478 96.1429 190.32 97.4515 190.382 98.7879L190.381 98.7868Z" fill="white"/>
<path d="M169.373 102.822C169.373 100.084 169.361 97.3468 169.378 94.6093C169.387 93.2525 169.691 91.9564 170.292 90.7301C171.024 89.236 172.151 88.139 173.596 87.3421C175.123 86.4997 176.77 86.0187 178.483 85.793C179.639 85.641 180.812 85.5967 181.979 85.5406C182.617 85.5094 182.671 85.5842 182.673 86.1986C182.679 87.5009 182.679 88.8038 182.673 90.1062C182.67 90.7199 182.618 90.7511 181.979 90.7755C180.334 90.8379 178.697 90.9559 177.133 91.5293C176.374 91.8078 175.697 92.202 175.254 92.9122C174.927 93.4369 174.761 94.0121 174.724 94.6247C174.709 94.8691 174.715 95.1153 174.715 95.3609C174.715 100.628 174.715 105.895 174.715 111.162C174.715 111.776 174.417 112.084 173.82 112.085C172.555 112.086 171.289 112.089 170.024 112.083C169.434 112.08 169.376 112.023 169.375 111.43C169.371 108.56 169.373 105.691 169.373 102.821V102.822Z" fill="white"/>
<path d="M124.596 87.282C124.596 89.4171 124.603 91.5515 124.594 93.686C124.589 94.7314 124.392 95.749 124.092 96.7496C123.489 98.7592 122.087 99.9079 120.105 100.369C118.296 100.79 116.46 100.79 114.652 100.365C112.553 99.8721 111.11 98.6169 110.578 96.4784C110.373 95.6594 110.232 94.8108 110.183 93.9685C109.939 89.7795 110.097 85.5849 110.096 81.3931C110.096 80.1373 110.264 78.8769 110.661 77.6551C111.241 75.8752 112.435 74.7549 114.181 74.1826C115.645 73.7033 117.156 73.6454 118.667 73.8014C119.43 73.8802 120.199 74.0617 120.923 74.3176C122.636 74.9239 123.675 76.1849 124.156 77.916C124.45 78.9756 124.61 80.055 124.605 81.16C124.595 83.2003 124.602 85.2406 124.602 87.2809H124.598L124.596 87.282Z" fill="white"/>
</svg>
