<svg width="375" height="180" viewBox="0 0 375 180" fill="none" xmlns="http://www.w3.org/2000/svg">
<path d="M134.833 72.9943H130.055L115.852 104.991L115.426 105.94H124.982L127.775 99.3488H141.935L144.737 105.94H154.293L139.611 72.9943H134.833ZM134.833 94.0553H130.055L134.833 82.8587L139.655 94.0553H134.833ZM93.5557 79.5851H116.288V72.9943H84V105.94H93.5557V91.4259H112.972V85.1834H93.5557V79.5851ZM188.774 95.3874L170.35 72.9943H161.133V105.94H170.341V84.8351L187.433 105.94H197.981V72.9943H188.774V95.3874ZM270.128 101.673C266.812 101.717 264.227 100.637 262.426 98.4869C260.615 96.2929 259.71 93.3239 259.754 89.4844C259.754 85.7841 260.615 82.8065 262.252 80.6125C263.931 78.3314 266.56 77.2953 270.128 77.2953C273.574 77.3388 276.028 78.2008 277.403 79.9682C278.778 81.7356 279.727 83.799 280.24 86.1672L291.476 86.1237C290.745 81.605 288.682 78.1137 285.323 75.7455C281.92 73.3338 276.968 72.0888 270.476 72.0009C263.113 71.9573 257.735 73.5506 254.289 76.7807C250.842 80.0108 249.163 84.2683 249.206 89.4835C249.25 96.0308 251.312 100.549 255.446 103.048C259.536 105.591 264.567 106.879 270.467 106.966C276.968 107.053 281.92 105.799 285.314 103.222C288.673 100.68 290.736 97.1975 291.467 92.7572H280.232C279.205 98.6602 275.854 101.629 270.128 101.673M232.81 94.0109C232.81 96.1614 231.948 97.7982 230.182 98.9649C228.415 100.132 226.222 100.732 223.55 100.732C221.183 100.776 219.077 100.219 217.18 99.0955C215.239 97.9723 214.29 96.292 214.29 94.0109V72.9943H204.735V94.7866C204.735 97.1548 205.379 99.1312 206.675 100.69C207.92 102.239 209.512 103.484 211.453 104.433C213.394 105.365 215.448 106.035 217.571 106.41C219.764 106.802 221.749 106.967 223.559 107.019C225.195 107.019 227.083 106.845 229.242 106.506C231.435 106.122 233.497 105.47 235.438 104.564C237.379 103.615 239.015 102.37 240.347 100.777C241.722 99.1834 242.366 97.207 242.366 94.7953V72.9943H232.81V94.0118V94.0109Z" fill="white"/>
</svg>
