<svg width="375" height="180" viewBox="0 0 375 180" fill="none" xmlns="http://www.w3.org/2000/svg">
<path d="M311.003 105.903C309.649 107.344 308.295 108.785 306.913 110.258C303.089 108.84 299.652 106.894 296.243 104.937C292.881 105.652 289.598 105.528 286.425 104.318C280.206 101.944 276.417 97.45 275.425 90.7657C273.997 81.1408 280.509 72.5919 290.193 71.2998C295.09 70.6477 299.594 71.6177 303.505 74.7541C307.036 77.5847 308.928 81.3568 309.465 85.8707C310.085 91.0877 308.482 95.5548 305.037 99.3799C304.145 100.37 303.047 101.171 301.942 102.149C302.263 102.319 302.583 102.535 302.932 102.665C305.405 103.596 307.882 104.507 310.358 105.428C310.577 105.51 310.788 105.61 311.003 105.701V105.905V105.903ZM293.7 99.17C296.727 99.0823 299.787 97.1199 301.594 93.2927C302.577 91.2141 302.82 88.9907 302.587 86.6716C302.095 81.7481 298.25 77.4298 293.089 77.2179C289.783 77.0813 286.953 78.1105 284.795 80.6741C282.439 83.4742 281.752 86.7572 282.335 90.3561C283.172 95.5344 287.373 99.1842 293.7 99.17Z" fill="white"/>
<path d="M66.3378 125.001C65.9883 124.897 65.6388 124.793 65.2873 124.687C63.5598 124.165 62.7462 122.946 63.0697 121.153C63.8872 116.629 64.755 112.113 65.6047 107.595C65.7352 106.898 65.8357 106.189 66.0365 105.512C66.5548 103.766 67.7419 102.963 69.5257 103.23C74.6138 103.99 79.6978 104.785 84.7799 105.59C85.9992 105.783 87.2185 106.012 88.4157 106.315C90.3621 106.81 91.6096 107.966 91.9852 110.087C92.3849 112.349 92.9775 114.575 93.4757 116.821C93.562 117.214 93.6364 117.619 93.6464 118.021C93.6866 119.604 93.0578 120.417 91.5131 120.713C89.5767 121.084 87.6323 121.416 85.6899 121.754C79.7963 122.781 73.9027 123.802 68.0091 124.831C67.8484 124.86 67.6977 124.944 67.5431 125.003H66.3378V125.001Z" fill="white"/>
<path d="M173.177 86.1526C173.171 96.6803 167.659 103.426 159.18 105.034C150.88 106.607 142.191 101.981 139.642 93.1996C136.865 83.6337 142.225 73.6685 152.471 71.5165C156.131 70.7482 159.749 70.9275 163.188 72.4315C169.903 75.3701 172.974 80.7705 173.177 86.1526ZM166.289 88.005C166.251 87.5098 166.265 86.823 166.135 86.1668C165.964 85.3089 165.761 84.4407 165.432 83.6358C164.007 80.153 161.468 77.9154 157.774 77.3713C153.873 76.7987 150.485 77.9562 148.022 81.2453C145.33 84.8442 145.093 90.3261 147.421 94.1716C150.641 99.4926 157.754 100.805 162.495 96.8902C165.19 94.6628 166.231 91.6284 166.289 88.003V88.005Z" fill="white"/>
<path d="M218.438 71.0968C223.385 71.215 228.098 73.2285 231.458 77.8952C234.096 81.5573 234.965 85.7126 234.437 90.2C234.039 93.5849 232.806 96.601 230.653 99.2156C228.019 102.413 224.639 104.343 220.601 105.024C214.555 106.043 209.242 104.469 204.931 100.008C201.723 96.6886 200.239 92.6088 200.343 87.942C200.478 81.8671 203.043 77.1433 208.069 73.848C211.003 71.9242 214.294 71.1111 218.438 71.0928V71.0968ZM207.251 86.5644C207.251 91.6326 208.418 94.4123 210.782 96.5867C214.916 100.385 221.704 99.9065 225.205 95.5189C227.493 92.6516 228.134 89.3094 227.429 85.7656C225.753 77.3328 217.236 75.3194 211.867 78.9081C208.609 81.0866 207.287 84.3227 207.249 86.5644H207.251Z" fill="white"/>
<path d="M100.187 83.4854C101.955 83.5079 102.722 84.0357 103.15 85.7699C104.339 90.5936 105.526 95.4173 106.625 100.261C107.308 103.273 105.028 105.511 101.79 105.042C96.7662 104.315 91.7525 103.526 86.7367 102.75C84.031 102.33 81.3292 101.879 78.6235 101.451C76.4842 101.113 75.6606 100.133 75.99 97.9707C76.4038 95.2665 76.9321 92.5785 77.4785 89.8966C77.8079 88.2826 78.8364 87.2902 80.4554 86.9886C84.1013 86.3079 87.7471 85.6354 91.3969 84.9731C93.8616 84.5248 96.3304 84.0968 98.7991 83.6668C99.2591 83.5873 99.7231 83.5425 100.187 83.4834V83.4854Z" fill="white"/>
<path d="M74.4763 84.832C73.9359 84.7301 73.2972 84.6669 72.6945 84.4855C71.0253 83.9842 70.2801 82.6392 70.6095 80.7481C70.8987 79.0831 71.2322 77.4263 71.5415 75.7654C72.1421 72.5435 72.7287 69.3176 73.3514 66.0997C73.4579 65.5454 73.6286 64.9707 73.9118 64.4898C74.6932 63.1591 75.9045 62.8126 77.3668 63.0877C81.3401 63.8336 85.3173 64.555 89.2926 65.2907C91.0342 65.6127 92.7777 65.9265 94.5113 66.2852C95.2947 66.4462 96.0821 66.6438 96.8233 66.9393C97.8638 67.353 98.6111 68.1009 98.8903 69.2503C99.5069 71.7793 100.132 74.3043 100.746 76.8333C100.811 77.0941 100.857 77.3631 100.875 77.6321C100.989 79.3643 100.409 80.1612 98.7396 80.4913C96.9036 80.854 95.0617 81.1862 93.2217 81.5163C87.3683 82.5659 81.5148 83.6093 75.6614 84.6527C75.3019 84.7179 74.9383 84.7647 74.4783 84.834L74.4763 84.832Z" fill="white"/>
<path d="M177.135 104.488C177.764 102.142 177.516 99.8046 177.527 97.4895C177.559 90.0472 177.533 82.6028 177.504 75.1604C177.5 74.0925 177.364 73.0247 177.277 71.7897C177.4 71.749 177.663 71.588 177.93 71.5859C181.365 71.5493 184.81 71.1458 188.229 71.749C191.345 72.2972 193.954 73.6483 195.286 76.7663C197.007 80.7952 195.523 85.4415 191.877 87.1167C191.79 87.1554 191.724 87.239 191.584 87.3572C191.823 87.4774 192.013 87.5936 192.216 87.6751C197.59 89.8332 198.459 96.008 195.989 99.9615C194.249 102.745 191.574 103.984 188.494 104.512C184.939 105.121 181.365 104.824 177.798 104.696C177.585 104.687 177.374 104.567 177.133 104.49L177.135 104.488ZM183.884 98.8896C185.505 99.3053 186.99 99.0567 188.388 98.3169C189.651 97.6464 190.39 96.5725 190.533 95.0991C190.891 91.382 186.923 89.7394 183.884 90.5892V98.8896ZM183.87 84.7853C185.981 85.2439 188.102 84.4491 188.976 82.9023C189.746 81.5451 189.633 79.6091 188.687 78.4231C187.735 77.2289 185.596 76.7214 183.87 77.3144V84.7874V84.7853Z" fill="white"/>
<path d="M122.301 104.671H115.357C115.417 102.792 115.49 100.988 115.532 99.1849C115.586 96.8169 115.638 94.4509 115.646 92.0829C115.662 87.6485 115.662 83.214 115.636 78.7816C115.624 76.9557 115.542 75.1297 115.456 73.3058C115.431 72.8147 115.277 72.3297 115.156 71.7183C115.49 71.6572 115.799 71.5553 116.11 71.5532C119.081 71.5328 122.056 71.4289 125.021 71.5532C127.673 71.6653 130.159 72.4193 132.136 74.3859C134.424 76.6602 135.069 79.4806 134.731 82.5802C134.364 85.9591 132.588 88.4147 129.673 90.0572C129.529 90.1388 129.388 90.2305 129.247 90.3222C129.221 90.3385 129.205 90.3752 129.059 90.5708C132.375 95.1886 135.728 99.8574 139.078 104.524C138.996 104.598 138.972 104.638 138.948 104.638C136.547 104.659 134.147 104.718 131.748 104.651C131.377 104.64 130.933 104.108 130.67 103.717C128.171 99.994 125.708 96.2463 123.227 92.5088C122.978 92.1338 122.777 91.6427 121.976 91.8608C122.054 96.067 121.715 100.3 122.301 104.669V104.671ZM122.03 86.6132C123.852 87.1492 126.586 86.1526 127.558 84.4184C128.522 82.6984 128.442 80.0899 127.291 78.6716C126.216 77.3469 123.814 76.7172 122.03 77.3266V86.6152V86.6132Z" fill="white"/>
<path d="M244.734 77.2289C241.661 77.4592 238.738 76.7826 235.779 77.877V71.7551C236.496 71.4678 259.05 71.3842 260.37 71.6838V77.8708C257.433 76.7806 254.509 77.4531 251.522 77.2391C251.477 77.7873 251.419 78.1786 251.419 78.5698C251.423 86.0794 251.419 93.5911 251.455 101.101C251.461 102.23 251.646 103.357 251.753 104.551C251.263 104.804 245.508 104.891 244.328 104.59C245.05 100.306 244.654 95.9877 244.72 91.6836C244.786 87.3878 244.734 83.0919 244.734 78.794C244.734 78.3599 244.734 77.9259 244.734 77.2289Z" fill="white"/>
<path d="M271.219 104.656H263.719C263.837 103.833 263.968 103.085 264.044 102.333C264.118 101.593 264.175 100.849 264.175 100.107C264.185 92.2514 264.199 84.3974 264.171 76.5414C264.165 74.9355 263.988 73.3317 263.883 71.626H271.284C270.56 76.4007 270.974 81.1327 270.906 85.8504C270.838 90.5559 270.88 95.2634 270.922 99.9689C270.936 101.475 271.109 102.977 271.219 104.656Z" fill="white"/>
</svg>
