<svg width="375" height="180" viewBox="0 0 375 180" fill="none" xmlns="http://www.w3.org/2000/svg">
<path d="M60.0527 97.0061C62.7761 98.9662 65.3863 99.965 67.7328 99.965C69.5515 99.965 70.5409 99.0981 70.5409 97.9202C70.5503 94.6974 60.0527 94.2639 60.0527 85.5756C60.0527 81.8345 62.5311 76.6611 70.0132 76.6611C73.3585 76.6611 76.0818 77.6223 78.8994 79.8368V87.6676C76.1761 85.0196 73.9804 83.7946 71.879 83.7946C70.2299 83.7946 69.1463 84.5767 69.1463 85.8395C69.1463 89.4486 80.0114 89.8444 80.0114 98.2783C80.0114 102.538 77.1561 107.108 69.8059 107.108C66.1685 107.108 62.908 106.458 60.0527 105.063V97.0155V97.0061Z" fill="white"/>
<path d="M107.753 104.478C104.822 106.221 101.138 107.088 97.2554 107.088C85.4762 107.088 81.4336 98.7863 81.4336 92.0015C81.4336 83.3509 87.4268 76.6509 97.7548 76.6509C101.468 76.6509 104.775 77.3482 107.508 78.6486V87.2993C104.662 85.3863 102.184 84.5571 99.3285 84.5571C94.3718 84.5571 91.3093 87.3369 91.3093 91.8601C91.3093 96.3834 94.4472 99.1632 99.4039 99.1632C102.25 99.1632 104.568 98.4282 107.744 96.553V104.469L107.753 104.478Z" fill="white"/>
<path d="M119.966 95.4883V106.702H110.09V77.0469H119.966V87.8272H130.831V77.0469H140.706V106.702H130.831V95.4883H119.966Z" fill="white"/>
<path d="M173.124 93.0952C173.124 101.793 168.007 107.098 158.216 107.098C148.425 107.098 142.932 102.273 142.932 94.1883V77.0566H152.807V92.8784C152.807 97.053 154.918 99.0507 157.971 99.0507C161.024 99.0507 163.258 97.053 163.258 92.3601V77.0566H173.133V93.0952H173.124Z" fill="white"/>
<path d="M175.611 106.702V77.0469H184.036L198.284 92.2656V77.0469H207.745V106.702H199.32L185.063 91.4834L185.072 106.702H175.611Z" fill="white"/>
<path d="M220.165 92.831V106.702H210.289V77.0469H220.165V90.4846L231.435 77.0469H241.81L230.323 90.8332L242.225 106.702H230.446L220.24 92.831H220.165Z" fill="white"/>
<path d="M273.566 98.8813C278.504 98.8813 282.499 94.8858 282.499 89.948C282.499 85.0101 278.504 81.0146 273.566 81.0146C268.628 81.0146 264.633 85.0101 264.633 89.948C264.633 94.8858 268.638 98.8813 273.566 98.8813Z" fill="white"/>
<path d="M245.844 106.571V127.048L265.294 116.748C267.932 117.568 270.731 118.02 273.652 118.02C289.21 118.02 301.818 105.402 301.818 89.8348C301.818 85.6603 300.904 81.6836 299.274 78.1216L284.64 85.9524C285.064 87.168 285.299 88.4778 285.299 89.8348C285.299 96.2898 280.069 101.529 273.614 101.529C269.751 101.529 266.321 99.6539 264.2 96.7609L245.853 106.542L245.844 106.571Z" fill="white"/>
<path d="M301.404 73.2401V52.7632L281.955 63.0535C279.316 62.2336 276.517 61.7719 273.596 61.7719C258.038 61.7719 245.43 74.3897 245.43 89.9571C245.43 94.1411 246.334 98.1083 247.974 101.67L262.618 93.8489V93.8207C262.166 92.5956 261.93 91.2669 261.93 89.8911C261.93 83.4362 267.16 78.1968 273.615 78.1968C277.497 78.1968 280.937 80.0909 283.067 83.0027L301.404 73.2307V73.2401Z" fill="white"/>
<path d="M312.645 84.7364C312.617 84.6893 312.598 84.5762 312.589 84.4066C312.579 84.237 312.579 84.0862 312.579 83.9448V83.4831C312.579 83.1627 312.466 82.8423 312.24 82.5125C312.014 82.1827 311.656 81.9754 311.166 81.9C311.552 81.834 311.854 81.7398 312.07 81.5984C312.475 81.3346 312.683 80.9199 312.683 80.364C312.683 79.5818 312.362 79.0541 311.712 78.7808C311.354 78.6301 310.789 78.5547 310.007 78.5547H307.82V84.8118H308.923V82.3429H309.79C310.374 82.3429 310.779 82.4088 311.015 82.5408C311.411 82.7763 311.609 83.2475 311.609 83.9731V84.4725L311.627 84.6704C311.627 84.6704 311.637 84.7176 311.646 84.7364C311.646 84.7552 311.656 84.7741 311.665 84.8024H312.702L312.664 84.727L312.645 84.7364ZM310.949 81.4382C310.713 81.5325 310.365 81.5796 309.903 81.5796H308.904V79.318H309.846C310.459 79.318 310.902 79.3934 311.175 79.5536C311.448 79.7043 311.59 80.0153 311.59 80.4676C311.59 80.9482 311.373 81.278 310.949 81.4477V81.4382Z" fill="white"/>
<path d="M313.579 78.2347C314.531 79.1959 315.002 80.3456 315.002 81.7025C315.002 83.0595 314.522 84.228 313.579 85.1892C312.627 86.1503 311.468 86.6309 310.111 86.6309C308.754 86.6309 307.595 86.1503 306.644 85.1892C305.701 84.228 305.221 83.0595 305.221 81.7025C305.221 80.3456 305.701 79.1959 306.653 78.2347C307.605 77.2736 308.764 76.793 310.111 76.793C311.459 76.793 312.618 77.2736 313.579 78.2347Z" stroke="white" stroke-width="0.753867" stroke-miterlimit="10"/>
</svg>
