<svg width="375" height="180" viewBox="0 0 375 180" fill="none" xmlns="http://www.w3.org/2000/svg">
<path d="M318.077 82.1518V47.9678L283.053 89.9969H311.54H318.077H346.561V47.9678L318.077 82.1518Z" fill="white"/>
<path d="M253.939 67.5794C253.939 55.2001 263.976 45.1631 276.356 45.1631C288.735 45.1631 298.772 55.2001 298.772 67.5794C298.772 67.7663 298.77 67.9532 298.765 68.1401H275.88V89.9909C263.722 89.7384 253.939 79.801 253.939 67.5794Z" fill="white"/>
<path d="M32.9458 104.259H33.7832C35.7105 104.259 37.3586 104.283 37.3586 106.694C37.3586 109.026 35.5843 109.026 33.7832 109.026H32.9458V104.259ZM27.9746 119.369H32.9458V113.031H35.7615C40.0991 113.031 42.5337 111.055 42.5337 106.541C42.5337 102.154 39.6913 100.251 35.5843 100.251H27.9746V119.369ZM55.5662 107.632V100.251H50.5951V119.369H55.5662V111.536H62.7438V119.369H67.715V100.251H62.7438V107.632H55.5662ZM85.4441 104.436C88.4127 104.436 90.8473 106.847 90.8473 109.483C90.8473 112.779 88.4127 115.187 85.4441 115.187C82.4779 115.187 80.0433 112.779 80.0433 109.483C80.0433 106.847 82.4779 104.436 85.4441 104.436ZM85.4441 99.6182C79.9414 99.6182 74.8683 103.677 74.8683 109.456C74.8683 115.643 79.3054 120.003 85.4441 120.003C91.5828 120.003 96.02 115.643 96.02 109.456C96.02 103.677 90.9493 99.6182 85.4441 99.6182ZM114.282 104.462V100.25H103.401V119.37H114.282V115.161H108.372V111.865H113.268V107.658H108.372V104.462H114.282ZM123.485 119.369H128.456V107.657H128.507L137.612 119.369H142.583V100.252H137.612V111.942H137.561L128.456 100.252H123.485V119.369ZM157.42 100.25H152.449V119.368H157.42V100.25ZM171.645 109.153L164.164 119.37H170.174L174.563 113.132L178.571 119.37H184.556L177.481 109.153L183.593 100.252H177.481L174.563 105.197L171.645 100.252H165.533L171.645 109.153ZM200.623 119.369H205.57L207.167 108.366H207.218L211.607 119.369H213.582L218.175 108.366H218.226L219.622 119.369H224.59L221.699 100.252H216.755L212.646 110.471L208.764 100.252H203.868L200.623 119.369ZM243.235 104.462V100.25H232.356V119.37H243.235V115.161H237.327V111.865H242.22V107.658H237.327V104.462H243.235ZM265.626 100.708C264.155 100.099 262.685 99.7441 261.087 99.7441C258.398 99.7441 255.684 100.909 253.808 102.839C251.982 104.715 250.992 107.225 250.992 109.837C250.992 112.677 251.956 115.16 254.063 117.063C256.039 118.862 258.575 119.876 261.238 119.876C262.786 119.876 263.978 119.495 265.626 118.988V113.031C264.588 114.274 262.964 115.061 261.34 115.061C258.245 115.061 256.165 112.881 256.165 109.864C256.165 106.897 258.221 104.562 261.265 104.562C262.964 104.562 264.612 105.298 265.626 106.667V100.708ZM284.722 112.246H280.589L282.642 106.161H282.693L284.722 112.246ZM286.067 116.047L287.31 119.37H292.611L285.407 100.252H279.979L272.625 119.37H277.899L279.22 116.047H286.067ZM299.81 119.369H304.781V107.657H304.832L313.937 119.369H318.908V100.252H313.937V111.942H313.886L304.781 100.252H299.81V119.369ZM337.424 104.436C340.39 104.436 342.825 106.847 342.825 109.483C342.825 112.779 340.39 115.187 337.424 115.187C334.458 115.187 332.021 112.779 332.021 109.483C332.021 106.847 334.458 104.436 337.424 104.436ZM337.424 99.6182C331.919 99.6182 326.848 103.677 326.848 109.456C326.848 115.643 331.286 120.003 337.424 120.003C343.563 120.003 348 115.643 348 109.456C348 103.677 342.927 99.6182 337.424 99.6182Z" fill="white"/>
</svg>
