<svg width="375" height="180" viewBox="0 0 375 180" fill="none" xmlns="http://www.w3.org/2000/svg">
<path d="M251.291 37.3112C251.214 37.1556 250.981 37 250.748 37H235.465C235.232 37 235.077 37.0778 234.922 37.3112L230.887 44.2348H217L220.724 37.9335C220.802 37.7779 220.802 37.5446 220.724 37.3112C220.647 37.1556 220.414 37 220.181 37H204.898C204.665 37 204.51 37.0778 204.355 37.3112L200.32 44.2348H142.212C140.273 44.2348 138.721 45.7907 138.721 47.7355V72.8628H132.515C132.282 72.8628 132.127 72.9406 131.971 73.174L124.058 86.7101C123.981 86.8657 123.981 87.099 124.058 87.3324C124.136 87.488 124.369 87.6436 124.601 87.6436H138.721V124.207H157.884L165.642 110.904H171.305L157.34 134.864H151.677L154.935 129.185H138.643V136.342C138.643 138.287 140.195 139.843 142.135 139.843H237.559C239.499 139.843 241.051 138.287 241.051 136.342V115.883H221.81C221.423 115.883 221.035 116.116 220.879 116.427L218.785 120.006H226C227.629 120.006 228.638 121.795 227.862 123.195L221.888 133.386C221.423 134.242 220.492 134.786 219.483 134.786H203.889V129.108H198.846L201.794 124.129H203.967V120.395L208.777 112.149V129.808H217.388C217.854 129.808 218.319 129.574 218.552 129.185L221.112 124.984H213.664C212.035 124.984 211.027 123.195 211.802 121.795L217.466 112.149C217.931 111.293 218.862 110.748 219.871 110.748H241.361V55.4371L251.602 37.9335C251.446 37.7779 251.446 37.5446 251.291 37.3112ZM167.348 102.269L176.27 87.0212H124.601L132.515 73.4852H184.106L204.975 37.6223H220.259L216.38 44.2348L182.632 102.191H167.348V102.269ZM163.159 134.864L166.417 129.185H162.306L165.254 124.207H169.366L177.124 110.904H182.787L168.822 134.864H163.159ZM171.693 134.864L185.658 110.904H191.243L177.279 134.864H171.693ZM193.881 134.864H187.364V129.185H182.166L185.115 124.207H187.364V120.317L192.097 112.226V127.707L201.95 110.904H207.846L193.881 134.864ZM213.199 102.269H197.915L206.837 87.0212H195.743L203.656 73.4852H214.673L235.535 37.6223H250.818L213.191 102.269H213.199Z" fill="white"/>
</svg>
